<?xml version="1.0" encoding="UTF-8" standalone="no"?>
<!-- Created with Inkscape (http://www.inkscape.org/) -->

<svg
   xmlns:dc="http://purl.org/dc/elements/1.1/"
   xmlns:cc="http://creativecommons.org/ns#"
   xmlns:rdf="http://www.w3.org/1999/02/22-rdf-syntax-ns#"
   xmlns:svg="http://www.w3.org/2000/svg"
   xmlns="http://www.w3.org/2000/svg"
   xmlns:sodipodi="http://sodipodi.sourceforge.net/DTD/sodipodi-0.dtd"
   xmlns:inkscape="http://www.inkscape.org/namespaces/inkscape"
   width="211.8387"
   height="214.20081"
   id="svg5013"
   version="1.1"
   inkscape:version="0.48.4 r9939"
   sodipodi:docname="requires-sync.svg">
  <sodipodi:namedview
     id="base"
     pagecolor="#ffffff"
     bordercolor="#666666"
     borderopacity="1.0"
     inkscape:pageopacity="0.0"
     inkscape:pageshadow="2"
     inkscape:zoom="1.4"
     inkscape:cx="67.118431"
     inkscape:cy="106.13068"
     inkscape:document-units="px"
     inkscape:current-layer="layer1"
     showgrid="true"
     inkscape:snap-grids="true"
     inkscape:window-width="1920"
     inkscape:window-height="1056"
     inkscape:window-x="0"
     inkscape:window-y="24"
     inkscape:window-maximized="1"
     fit-margin-top="0"
     fit-margin-left="0"
     fit-margin-right="0"
     fit-margin-bottom="0">
    <inkscape:grid
       originy="-535.96203px"
       originx="-71.379335px"
       snapvisiblegridlinesonly="true"
       enabled="true"
       visible="true"
       empspacing="5"
       id="grid5021"
       type="xygrid" />
  </sodipodi:namedview>
  <defs
     id="defs5015">
    <marker
       style="overflow:visible"
       id="Arrow1Sstart"
       refX="0"
       refY="0"
       orient="auto"
       inkscape:stockid="Arrow1Sstart">
      <path
         transform="matrix(0.2,0,0,0.2,1.2,0)"
         style="fill-rule:evenodd;stroke:#000000;stroke-width:1pt"
         d="M 0,0 5,-5 -12.5,0 5,5 0,0 z"
         id="path3773"
         inkscape:connector-curvature="0" />
    </marker>
    <marker
       style="overflow:visible"
       id="Arrow1Send"
       refX="0"
       refY="0"
       orient="auto"
       inkscape:stockid="Arrow1Send">
      <path
         transform="matrix(-0.2,0,0,-0.2,-1.2,0)"
         style="fill-rule:evenodd;stroke:#000000;stroke-width:1pt"
         d="M 0,0 5,-5 -12.5,0 5,5 0,0 z"
         id="path3776"
         inkscape:connector-curvature="0" />
    </marker>
    <marker
       style="overflow:visible"
       id="Arrow1Mend"
       refX="0"
       refY="0"
       orient="auto"
       inkscape:stockid="Arrow1Mend">
      <path
         transform="matrix(-0.4,0,0,-0.4,-4,0)"
         style="fill-rule:evenodd;stroke:#000000;stroke-width:1pt"
         d="M 0,0 5,-5 -12.5,0 5,5 0,0 z"
         id="path3770"
         inkscape:connector-curvature="0" />
    </marker>
    <marker
       style="overflow:visible"
       id="Arrow1Sstartr"
       refX="0"
       refY="0"
       orient="auto"
       inkscape:stockid="Arrow1Sstartr">
      <path
         transform="matrix(0.2,0,0,0.2,1.2,0)"
         style="fill:#de3833;fill-rule:evenodd;stroke:#de3833;stroke-width:1pt"
         d="M 0,0 5,-5 -12.5,0 5,5 0,0 z"
         id="path7705"
         inkscape:connector-curvature="0" />
    </marker>
    <marker
       style="overflow:visible"
       id="Arrow1Sendr"
       refX="0"
       refY="0"
       orient="auto"
       inkscape:stockid="Arrow1Sendr">
      <path
         transform="matrix(-0.2,0,0,-0.2,-1.2,0)"
         style="fill:#de3833;fill-rule:evenodd;stroke:#de3833;stroke-width:1pt"
         d="M 0,0 5,-5 -12.5,0 5,5 0,0 z"
         id="path7708"
         inkscape:connector-curvature="0" />
    </marker>
    <marker
       style="overflow:visible"
       id="Arrow1Sstartr-0"
       refX="0"
       refY="0"
       orient="auto"
       inkscape:stockid="Arrow1Sstartr">
      <path
         inkscape:connector-curvature="0"
         transform="matrix(0.2,0,0,0.2,1.2,0)"
         style="fill:#de3833;fill-rule:evenodd;stroke:#de3833;stroke-width:1pt"
         d="M 0,0 5,-5 -12.5,0 5,5 0,0 z"
         id="path7705-8" />
    </marker>
    <marker
       style="overflow:visible"
       id="Arrow1Sendr-8"
       refX="0"
       refY="0"
       orient="auto"
       inkscape:stockid="Arrow1Sendr">
      <path
         inkscape:connector-curvature="0"
         transform="matrix(-0.2,0,0,-0.2,-1.2,0)"
         style="fill:#de3833;fill-rule:evenodd;stroke:#de3833;stroke-width:1pt"
         d="M 0,0 5,-5 -12.5,0 5,5 0,0 z"
         id="path7708-4" />
    </marker>
    <marker
       style="overflow:visible"
       id="Arrow1Sstartr-3"
       refX="0"
       refY="0"
       orient="auto"
       inkscape:stockid="Arrow1Sstartr">
      <path
         inkscape:connector-curvature="0"
         transform="matrix(0.2,0,0,0.2,1.2,0)"
         style="fill:#de3833;fill-rule:evenodd;stroke:#de3833;stroke-width:1pt"
         d="M 0,0 5,-5 -12.5,0 5,5 0,0 z"
         id="path7705-2" />
    </marker>
    <marker
       style="overflow:visible"
       id="Arrow1Sendr-7"
       refX="0"
       refY="0"
       orient="auto"
       inkscape:stockid="Arrow1Sendr">
      <path
         inkscape:connector-curvature="0"
         transform="matrix(-0.2,0,0,-0.2,-1.2,0)"
         style="fill:#de3833;fill-rule:evenodd;stroke:#de3833;stroke-width:1pt"
         d="M 0,0 5,-5 -12.5,0 5,5 0,0 z"
         id="path7708-8" />
    </marker>
    <marker
       style="overflow:visible"
       id="Arrow1Sstartr-2"
       refX="0"
       refY="0"
       orient="auto"
       inkscape:stockid="Arrow1Sstartr">
      <path
         inkscape:connector-curvature="0"
         transform="matrix(0.2,0,0,0.2,1.2,0)"
         style="fill:#de3833;fill-rule:evenodd;stroke:#de3833;stroke-width:1pt"
         d="M 0,0 5,-5 -12.5,0 5,5 0,0 z"
         id="path7705-6" />
    </marker>
    <marker
       style="overflow:visible"
       id="Arrow1Sendr-1"
       refX="0"
       refY="0"
       orient="auto"
       inkscape:stockid="Arrow1Sendr">
      <path
         inkscape:connector-curvature="0"
         transform="matrix(-0.2,0,0,-0.2,-1.2,0)"
         style="fill:#de3833;fill-rule:evenodd;stroke:#de3833;stroke-width:1pt"
         d="M 0,0 5,-5 -12.5,0 5,5 0,0 z"
         id="path7708-7" />
    </marker>
    <marker
       style="overflow:visible"
       id="Arrow1Sstartr-8"
       refX="0"
       refY="0"
       orient="auto"
       inkscape:stockid="Arrow1Sstartr">
      <path
         inkscape:connector-curvature="0"
         transform="matrix(0.2,0,0,0.2,1.2,0)"
         style="fill:#de3833;fill-rule:evenodd;stroke:#de3833;stroke-width:1pt"
         d="M 0,0 5,-5 -12.5,0 5,5 0,0 z"
         id="path7705-1" />
    </marker>
    <marker
       style="overflow:visible"
       id="Arrow1Sendr-2"
       refX="0"
       refY="0"
       orient="auto"
       inkscape:stockid="Arrow1Sendr">
      <path
         inkscape:connector-curvature="0"
         transform="matrix(-0.2,0,0,-0.2,-1.2,0)"
         style="fill:#de3833;fill-rule:evenodd;stroke:#de3833;stroke-width:1pt"
         d="M 0,0 5,-5 -12.5,0 5,5 0,0 z"
         id="path7708-9" />
    </marker>
    <marker
       style="overflow:visible"
       id="Arrow1Sstartr-84"
       refX="0"
       refY="0"
       orient="auto"
       inkscape:stockid="Arrow1Sstartr">
      <path
         inkscape:connector-curvature="0"
         transform="matrix(0.2,0,0,0.2,1.2,0)"
         style="fill:#de3833;fill-rule:evenodd;stroke:#de3833;stroke-width:1pt"
         d="M 0,0 5,-5 -12.5,0 5,5 0,0 z"
         id="path7705-80" />
    </marker>
    <marker
       style="overflow:visible"
       id="Arrow1Sendr-15"
       refX="0"
       refY="0"
       orient="auto"
       inkscape:stockid="Arrow1Sendr">
      <path
         inkscape:connector-curvature="0"
         transform="matrix(-0.2,0,0,-0.2,-1.2,0)"
         style="fill:#de3833;fill-rule:evenodd;stroke:#de3833;stroke-width:1pt"
         d="M 0,0 5,-5 -12.5,0 5,5 0,0 z"
         id="path7708-1" />
    </marker>
    <marker
       style="overflow:visible"
       id="Arrow1Sstartr-28"
       refX="0"
       refY="0"
       orient="auto"
       inkscape:stockid="Arrow1Sstartr">
      <path
         inkscape:connector-curvature="0"
         transform="matrix(0.2,0,0,0.2,1.2,0)"
         style="fill:#de3833;fill-rule:evenodd;stroke:#de3833;stroke-width:1pt"
         d="M 0,0 5,-5 -12.5,0 5,5 0,0 z"
         id="path7705-3" />
    </marker>
    <marker
       style="overflow:visible"
       id="Arrow1Sendr-23"
       refX="0"
       refY="0"
       orient="auto"
       inkscape:stockid="Arrow1Sendr">
      <path
         inkscape:connector-curvature="0"
         transform="matrix(-0.2,0,0,-0.2,-1.2,0)"
         style="fill:#de3833;fill-rule:evenodd;stroke:#de3833;stroke-width:1pt"
         d="M 0,0 5,-5 -12.5,0 5,5 0,0 z"
         id="path7708-6" />
    </marker>
    <marker
       style="overflow:visible"
       id="Arrow1Sstartr-7"
       refX="0"
       refY="0"
       orient="auto"
       inkscape:stockid="Arrow1Sstartr">
      <path
         inkscape:connector-curvature="0"
         transform="matrix(0.2,0,0,0.2,1.2,0)"
         style="fill:#de3833;fill-rule:evenodd;stroke:#de3833;stroke-width:1pt"
         d="M 0,0 5,-5 -12.5,0 5,5 0,0 z"
         id="path7705-33" />
    </marker>
    <marker
       style="overflow:visible"
       id="Arrow1Sendr-0"
       refX="0"
       refY="0"
       orient="auto"
       inkscape:stockid="Arrow1Sendr">
      <path
         inkscape:connector-curvature="0"
         transform="matrix(-0.2,0,0,-0.2,-1.2,0)"
         style="fill:#de3833;fill-rule:evenodd;stroke:#de3833;stroke-width:1pt"
         d="M 0,0 5,-5 -12.5,0 5,5 0,0 z"
         id="path7708-5" />
    </marker>
    <marker
       style="overflow:visible"
       id="Arrow1Sstartr-4"
       refX="0"
       refY="0"
       orient="auto"
       inkscape:stockid="Arrow1Sstartr">
      <path
         inkscape:connector-curvature="0"
         transform="matrix(0.2,0,0,0.2,1.2,0)"
         style="fill:#de3833;fill-rule:evenodd;stroke:#de3833;stroke-width:1pt"
         d="M 0,0 5,-5 -12.5,0 5,5 0,0 z"
         id="path7705-9" />
    </marker>
    <marker
       style="overflow:visible"
       id="Arrow1Sendr-06"
       refX="0"
       refY="0"
       orient="auto"
       inkscape:stockid="Arrow1Sendr">
      <path
         inkscape:connector-curvature="0"
         transform="matrix(-0.2,0,0,-0.2,-1.2,0)"
         style="fill:#de3833;fill-rule:evenodd;stroke:#de3833;stroke-width:1pt"
         d="M 0,0 5,-5 -12.5,0 5,5 0,0 z"
         id="path7708-3" />
    </marker>
    <marker
       style="overflow:visible"
       id="Arrow1Sstartr-9"
       refX="0"
       refY="0"
       orient="auto"
       inkscape:stockid="Arrow1Sstartr">
      <path
         inkscape:connector-curvature="0"
         transform="matrix(0.2,0,0,0.2,1.2,0)"
         style="fill:#de3833;fill-rule:evenodd;stroke:#de3833;stroke-width:1pt"
         d="M 0,0 5,-5 -12.5,0 5,5 0,0 z"
         id="path7705-67" />
    </marker>
    <marker
       style="overflow:visible"
       id="Arrow1Sendr-3"
       refX="0"
       refY="0"
       orient="auto"
       inkscape:stockid="Arrow1Sendr">
      <path
         inkscape:connector-curvature="0"
         transform="matrix(-0.2,0,0,-0.2,-1.2,0)"
         style="fill:#de3833;fill-rule:evenodd;stroke:#de3833;stroke-width:1pt"
         d="M 0,0 5,-5 -12.5,0 5,5 0,0 z"
         id="path7708-59" />
    </marker>
    <marker
       style="overflow:visible"
       id="Arrow1Sstartr-71"
       refX="0"
       refY="0"
       orient="auto"
       inkscape:stockid="Arrow1Sstartr">
      <path
         transform="matrix(0.2,0,0,0.2,1.2,0)"
         style="fill:#de3833;fill-rule:evenodd;stroke:#de3833;stroke-width:1pt"
         d="M 0,0 5,-5 -12.5,0 5,5 0,0 z"
         id="path7705-82"
         inkscape:connector-curvature="0" />
    </marker>
    <marker
       style="overflow:visible"
       id="Arrow1Sendr-07"
       refX="0"
       refY="0"
       orient="auto"
       inkscape:stockid="Arrow1Sendr">
      <path
         transform="matrix(-0.2,0,0,-0.2,-1.2,0)"
         style="fill:#de3833;fill-rule:evenodd;stroke:#de3833;stroke-width:1pt"
         d="M 0,0 5,-5 -12.5,0 5,5 0,0 z"
         id="path7708-60"
         inkscape:connector-curvature="0" />
    </marker>
    <marker
       style="overflow:visible"
       id="Arrow1Sstartr-5"
       refX="0"
       refY="0"
       orient="auto"
       inkscape:stockid="Arrow1Sstartr">
      <path
         transform="matrix(0.2,0,0,0.2,1.2,0)"
         style="fill:#de3833;fill-rule:evenodd;stroke:#de3833;stroke-width:1pt"
         d="M 0,0 5,-5 -12.5,0 5,5 0,0 z"
         id="path7705-83"
         inkscape:connector-curvature="0" />
    </marker>
    <marker
       style="overflow:visible"
       id="Arrow1Sendr-6"
       refX="0"
       refY="0"
       orient="auto"
       inkscape:stockid="Arrow1Sendr">
      <path
         transform="matrix(-0.2,0,0,-0.2,-1.2,0)"
         style="fill:#de3833;fill-rule:evenodd;stroke:#de3833;stroke-width:1pt"
         d="M 0,0 5,-5 -12.5,0 5,5 0,0 z"
         id="path7708-2"
         inkscape:connector-curvature="0" />
    </marker>
  </defs>
  <metadata
     id="metadata5018">
    <rdf:RDF>
      <cc:Work
         rdf:about="">
        <dc:format>image/svg+xml</dc:format>
        <dc:type
           rdf:resource="http://purl.org/dc/dcmitype/StillImage" />
        <dc:title></dc:title>
      </cc:Work>
    </rdf:RDF>
  </metadata>
  <g
     transform="translate(-71.379335,-302.19935)"
     id="layer1"
     inkscape:groupmode="layer"
     inkscape:label="Layer 1">
    <path
       sodipodi:type="star"
       style="fill:#f5b12c;fill-opacity:1;fill-rule:nonzero;stroke:#de3833;stroke-width:7;stroke-linecap:round;stroke-linejoin:round;stroke-miterlimit:4;stroke-opacity:1;stroke-dasharray:none"
       id="path4357"
       sodipodi:sides="5"
       sodipodi:cx="443.5"
       sodipodi:cy="163.5"
       sodipodi:r1="103.9714"
       sodipodi:r2="106.85682"
       sodipodi:arg1="0.98332282"
       sodipodi:arg2="2.5843472"
       inkscape:flatsided="false"
       inkscape:rounded="0"
       inkscape:randomized="0"
       d="M 501.12717,250.03993 352.80901,220.01127 379.00341,245.04901 361.72953,94.710683 346.01174,127.36013 483.65406,64.474594 447.74553,59.615319 550.08705,171.08825 543.61214,135.43561 469.22035,267.2152 z"
       transform="matrix(0.32622986,0.94529047,-0.94529047,0.32622986,182.87772,-62.919056)"
       inkscape:transform-center-x="4.1549183"
       inkscape:transform-center-y="-6.0654005" />
    <text
       xml:space="preserve"
       style="font-size:28px;font-style:normal;font-weight:normal;line-height:125%;letter-spacing:0px;word-spacing:0px;fill:#000000;fill-opacity:1;stroke:none;font-family:Sans"
       x="176.71413"
       y="382.02377"
       id="text4359"
       sodipodi:linespacing="125%"><tspan
         sodipodi:role="line"
         id="tspan4361"
         x="176.71413"
         y="382.02377"
         style="font-size:28px;text-align:center;text-anchor:middle">requires</tspan><tspan
         sodipodi:role="line"
         x="176.71413"
         y="417.02377"
         id="tspan4363"
         style="font-size:28px;text-align:center;text-anchor:middle">sync</tspan><tspan
         sodipodi:role="line"
         x="176.71413"
         y="452.02377"
         id="tspan4365"
         style="font-size:28px;text-align:center;text-anchor:middle">config</tspan></text>
  </g>
</svg>
